<?xml version="1.0" encoding="utf-8"?>
<!-- Generator: Adobe Illustrator 27.1.1, SVG Export Plug-In . SVG Version: 6.00 Build 0)  -->
<svg version="1.1" xmlns="http://www.w3.org/2000/svg" xmlns:xlink="http://www.w3.org/1999/xlink" x="0px" y="0px"
	 viewBox="0 0 25 25" style="enable-background:new 0 0 25 25;" xml:space="preserve">
<style type="text/css">
	.st0{display:none;}
	.st1{display:inline;fill:#333333;}
	.st2{fill:none;stroke:#FFFFFF;}
	.st3{fill:#FFFFFF;}
	.st4{fill:none;stroke:#FFFFFF;stroke-linecap:round;}
	.st5{fill:none;stroke:#FFFFFF;stroke-linecap:round;stroke-miterlimit:10;}
	.st6{fill:#333333;stroke:#FFFFFF;stroke-linecap:round;stroke-miterlimit:10;}
	.st7{fill:#010100;}
	.st8{fill:#EAA200;}
	.st9{fill:#393837;}
	.st10{fill:#EE3A17;}
	.st11{fill:#D38B00;}
	.st12{fill:#EF3A17;}
	.st13{fill:#8D562E;}
	.st14{fill:#F3AAB8;}
</style>
<g id="backgrounds" class="st0">
	<rect x="0" class="st1" width="25" height="25"/>
</g>
<g id="Layer_1">
	<g>
		<path class="st7" d="M12.51,17.33c0,0.04,0,0.06,0,0.09c0,1.02,0,2.04,0,3.06c0,0.04-0.01,0.09-0.03,0.12
			c-0.41,0.81-0.82,1.61-1.22,2.42c-0.02,0.04-0.04,0.06-0.08,0.06c-1.46,0-2.93,0-4.39,0c-0.01,0-0.02,0-0.03,0
			c0-0.01-0.01-0.03-0.01-0.04c0-0.52,0-1.04,0.01-1.56c0.01-0.47,0.16-0.91,0.4-1.31c0.24-0.41,0.57-0.73,0.98-0.98
			c0.03-0.02,0.05-0.04,0.05-0.08c0-0.22,0-0.44,0-0.67c0-0.03-0.01-0.06-0.02-0.09c-0.27-0.55-0.55-1.1-0.82-1.65
			c-0.01-0.03-0.04-0.06-0.06-0.07c-0.7-0.46-1.22-1.08-1.58-1.83c-0.24-0.5-0.38-1.03-0.38-1.59c-0.01-0.74-0.01-1.49-0.01-2.23
			c0-0.03,0-0.06,0-0.1c-0.09,0-0.18-0.01-0.27-0.01c-0.75-0.04-1.43-0.28-2.06-0.68C2.45,9.81,2.01,9.37,1.67,8.83
			C1.37,8.36,1.16,7.85,1.07,7.3C1.03,7.05,1.01,6.79,1.01,6.54C1,6.08,1,5.62,1,5.17c0-0.02,0-0.03,0-0.06c0.03,0,0.06,0,0.09,0
			c0.94,0,1.89,0,2.83,0c0.06,0,0.1-0.02,0.14-0.06C4.22,4.9,4.38,4.75,4.54,4.6c0.04-0.03,0.05-0.07,0.05-0.12
			c0-0.24,0-0.49,0.01-0.73C4.61,3.51,4.68,3.28,4.8,3.06c0.23-0.4,0.57-0.66,1.02-0.77C6.18,2.2,6.53,2.23,6.88,2.38
			c0.03,0.01,0.07,0.01,0.09,0C7.5,2.15,8.02,2.2,8.51,2.51c0.2,0.13,0.35,0.31,0.48,0.51c0.51,0.82,1.01,1.64,1.53,2.45
			c0.53,0.83,1.09,1.64,1.64,2.46c0.03,0.04,0.05,0.05,0.1,0.05c2.15,0,4.3,0,6.45,0c0.03,0,0.06-0.01,0.08-0.02
			c0.22-0.21,0.44-0.42,0.65-0.63c0.06-0.06,0.11-0.13,0.17-0.2c0.09-0.12,0.12-0.25,0.05-0.39c-0.07-0.14-0.19-0.19-0.35-0.2
			c-0.17,0-0.35,0-0.52,0c-0.87,0-1.73,0-2.6,0c-0.03,0-0.06,0-0.09,0c0-0.02-0.01-0.03-0.01-0.04c0-0.52,0-1.03,0.01-1.55
			c0-0.35,0.1-0.69,0.24-1.01c0.18-0.41,0.45-0.77,0.8-1.05c0.39-0.32,0.84-0.54,1.34-0.61c0.44-0.07,0.89-0.07,1.34-0.02
			c0.8,0.1,1.54,0.37,2.21,0.84c0.58,0.41,1.04,0.92,1.39,1.54c0.26,0.48,0.44,0.98,0.52,1.52c0.07,0.45,0.07,0.9,0.01,1.35
			c-0.08,0.61-0.27,1.19-0.59,1.72c-0.27,0.46-0.62,0.87-1.03,1.21c-0.15,0.12-0.15,0.12-0.08,0.3c0.2,0.49,0.28,1,0.28,1.53
			c0,1.03,0,2.07,0,3.1c0,0.04,0.01,0.09,0.04,0.13c0.45,0.68,0.9,1.35,1.35,2.03c0.03,0.04,0.04,0.09,0.04,0.14
			c0.01,0.93,0.01,1.87,0.01,2.8c0,0.04-0.01,0.08-0.03,0.12c-0.41,0.81-0.81,1.61-1.22,2.41c-0.02,0.04-0.04,0.06-0.09,0.06
			c-2.89,0-5.77,0-8.66,0c-0.02,0-0.04,0-0.06,0c0-0.02,0-0.04,0-0.06c0-0.48-0.01-0.97,0.01-1.45c0.03-0.81,0.34-1.49,0.93-2.04
			c0.23-0.21,0.48-0.38,0.76-0.51c0.03-0.01,0.06-0.05,0.07-0.08c0.22-0.66,0.43-1.32,0.65-1.97c0,0,0-0.01,0-0.02
			c-0.03,0.01-0.07,0.03-0.1,0.04c-0.52,0.24-1.08,0.35-1.65,0.35c-0.67,0-1.34,0-2.01,0C12.58,17.33,12.55,17.33,12.51,17.33z
			 M3.86,6.55c-0.01,0-0.03,0-0.04,0c-0.44,0-0.88,0-1.32,0c-0.02,0-0.03,0.01-0.06,0.01c0,0.41,0.09,0.8,0.25,1.17
			C2.7,7.74,2.71,7.77,2.72,7.79c0.19,0.39,0.45,0.73,0.79,1c0.53,0.42,1.13,0.64,1.8,0.63c0.48,0,0.95,0,1.44,0
			c0,0.04,0,0.07,0,0.1c0,0.9,0,1.79,0,2.69c0,0.03,0,0.06,0,0.09c0,0.24,0,0.48,0,0.73c0,0.24,0.02,0.48,0.09,0.71
			c0.03,0.08,0.05,0.17,0.08,0.25c0.28,0.71,0.75,1.24,1.43,1.59c0.04,0.02,0.07,0.05,0.09,0.09c0.39,0.77,0.77,1.55,1.15,2.32
			c0.02,0.04,0.03,0.08,0.03,0.13c0,0.67,0,1.34,0,2.01c0,0.03,0,0.05,0,0.08c-0.4,0-0.74,0.14-1.02,0.42
			c-0.28,0.28-0.41,0.61-0.41,1.01c0.02,0,0.03,0,0.04,0c0.68,0,1.36,0,2.05,0c0.05,0,0.07-0.02,0.08-0.06
			c0.22-0.43,0.44-0.87,0.66-1.3c0.02-0.05,0.04-0.1,0.04-0.15c0-1.38,0-2.76,0-4.14c0-0.03,0-0.06,0-0.08
			c0.01-0.01,0.01-0.01,0.02-0.01c0.71,0,1.42,0,2.13,0c0.48,0,0.96,0,1.44,0c0.95-0.01,1.65-0.46,2.17-1.24
			c0.01,0.04,0.01,0.07,0.02,0.1c0.05,0.43,0.22,0.82,0.52,1.13c0.19,0.2,0.42,0.36,0.63,0.54c0.02,0.02,0.04,0.04,0.06,0.06
			c-0.01,0.02-0.01,0.03-0.02,0.05c-0.39,1.18-0.78,2.35-1.18,3.53c-0.05,0.15-0.05,0.15-0.21,0.17c-0.01,0-0.03,0-0.04,0
			c-0.52,0.08-0.89,0.36-1.12,0.84c-0.09,0.18-0.13,0.37-0.13,0.58c0.03,0,0.06,0,0.09,0c0.66,0,1.32,0,1.98,0
			c0.07,0,0.1-0.02,0.13-0.08c0.65-1.29,1.29-2.59,1.94-3.88c0.01-0.02,0.02-0.05,0.03-0.07c0.03,0.01,0.06,0.02,0.08,0.03
			c0.48,0.36,0.96,0.72,1.44,1.08c0.04,0.03,0.06,0.07,0.06,0.12c0,0.43,0,0.86,0,1.29c0,0.02,0,0.05,0,0.07
			c-0.98,0.02-1.47,0.87-1.43,1.43c0.02,0,0.05,0,0.08,0c0.67,0,1.33,0,2,0c0.06,0,0.08-0.02,0.11-0.07
			c0.22-0.43,0.44-0.87,0.65-1.3c0.02-0.04,0.03-0.08,0.03-0.12c0-0.67,0-1.34-0.01-2.02c0-0.05-0.02-0.1-0.04-0.14
			c-0.45-0.68-0.9-1.35-1.34-2.03c-0.03-0.04-0.05-0.1-0.05-0.16c0-0.98,0.01-1.96,0.01-2.94c0-0.41-0.01-0.82-0.1-1.22
			c-0.1-0.45-0.28-0.85-0.59-1.2c-0.12-0.14-0.24-0.27-0.34-0.39c0.2-0.08,0.44-0.16,0.67-0.27c0.54-0.26,0.96-0.65,1.29-1.16
			c0.26-0.4,0.41-0.84,0.47-1.31c0.06-0.45,0.03-0.9-0.1-1.33c-0.23-0.74-0.66-1.34-1.32-1.77c-0.36-0.24-0.75-0.39-1.17-0.48
			c-0.37-0.08-0.75-0.06-1.12-0.05c-0.09,0-0.18,0.03-0.26,0.05c-0.42,0.13-0.72,0.41-0.91,0.81c-0.08,0.18-0.12,0.37-0.11,0.57
			c0.03,0,0.06,0,0.09,0c0.55,0,1.09,0,1.64,0c0.26,0,0.52,0.03,0.76,0.14c0.67,0.31,1.05,0.83,1.09,1.57
			c0.03,0.54-0.15,1-0.54,1.38c-0.39,0.38-0.78,0.77-1.18,1.16c-0.03,0.03-0.07,0.04-0.11,0.04c-0.34,0-0.69,0-1.03,0
			c-0.24,0-0.49,0-0.73,0c-0.4,0-0.79,0-1.19,0c-0.56,0-1.11,0-1.67,0c-0.48,0-0.97,0-1.45,0c-0.24,0-0.47,0-0.71,0
			c-0.24,0-0.49,0-0.73,0c-0.09,0-0.18,0-0.27,0c-0.06,0-0.09-0.02-0.12-0.07c-1.23-1.8-2.4-3.65-3.57-5.49
			C7.78,3.82,7.75,3.77,7.72,3.73C7.68,3.68,7.62,3.65,7.57,3.68C7.53,3.7,7.5,3.75,7.48,3.8C7.46,3.82,7.47,3.85,7.47,3.88
			c0,0.38,0,0.76,0,1.14c0,0.03,0,0.05,0,0.09c-0.09,0-0.17,0-0.25,0c-0.05,0-0.07-0.02-0.1-0.06C6.89,4.64,6.64,4.22,6.4,3.81
			C6.34,3.7,6.26,3.66,6.16,3.69C6.07,3.71,6.03,3.77,6.03,3.9c0,0.41-0.01,0.82,0,1.22c0,0.14-0.02,0.23-0.16,0.27
			c-0.04,0.01-0.07,0.04-0.1,0.06c-0.45,0.3-0.8,0.71-1.18,1.08C4.36,6.54,4.11,6.55,3.86,6.55z"/>
		<path class="st8" d="M18.06,16.47c-0.02-0.02-0.04-0.04-0.06-0.06c-0.21-0.18-0.44-0.34-0.63-0.54c-0.3-0.31-0.47-0.7-0.52-1.13
			c0-0.03-0.01-0.06-0.02-0.1c-0.52,0.79-1.22,1.23-2.17,1.24c0-0.24,0-0.47,0-0.71c0.12,0,0.22,0,0.32,0
			c0.13-0.01,0.27-0.01,0.39-0.04c0.61-0.14,1.05-0.5,1.3-1.08c0.1-0.23,0.13-0.47,0.13-0.72c0-0.3,0-0.6,0.02-0.9
			c0.01-0.27,0.13-0.49,0.32-0.68c0.18-0.18,0.36-0.36,0.54-0.54c0.19-0.2,0.37-0.41,0.46-0.68c0.08-0.23,0.09-0.47,0.1-0.72
			c0-0.13,0.01-0.26,0.01-0.39c0.34,0,0.69,0,1.03,0c0.04,0,0.08-0.02,0.11-0.04c0.39-0.39,0.78-0.78,1.18-1.16
			c0.39-0.38,0.57-0.85,0.54-1.38c-0.04-0.75-0.42-1.26-1.09-1.57c-0.24-0.11-0.5-0.14-0.76-0.14c-0.55,0-1.09,0-1.64,0
			c-0.03,0-0.06,0-0.09,0c0-0.2,0.03-0.39,0.11-0.57c0.18-0.4,0.49-0.67,0.91-0.81c0.09-0.03,0.18-0.05,0.26-0.05
			c0.37-0.01,0.75-0.03,1.12,0.05c0.42,0.09,0.81,0.24,1.17,0.48c0.65,0.43,1.09,1.03,1.32,1.77c0.13,0.43,0.16,0.88,0.1,1.33
			c-0.06,0.47-0.22,0.91-0.47,1.31c-0.32,0.5-0.75,0.9-1.29,1.16c-0.23,0.11-0.48,0.19-0.67,0.27c0.1,0.11,0.22,0.25,0.34,0.39
			c0.3,0.35,0.49,0.75,0.59,1.2c0.09,0.4,0.1,0.81,0.1,1.22c0,0.98-0.01,1.96-0.01,2.94c0,0.05,0.02,0.11,0.05,0.16
			c0.45,0.68,0.89,1.35,1.34,2.03c0.03,0.04,0.04,0.09,0.04,0.14c0.01,0.67,0.01,1.34,0.01,2.02c0,0.04-0.01,0.09-0.03,0.12
			c-0.22,0.43-0.44,0.87-0.65,1.3c-0.02,0.05-0.05,0.07-0.11,0.07c-0.67,0-1.33,0-2,0c-0.03,0-0.05,0-0.08,0
			c-0.04-0.57,0.45-1.41,1.43-1.43c0-0.02,0-0.05,0-0.07c0-0.43,0-0.86,0-1.29c0-0.06-0.02-0.09-0.06-0.12
			c-0.48-0.36-0.96-0.72-1.44-1.08c-0.02-0.02-0.05-0.02-0.08-0.03c-0.02-0.02-0.03-0.05-0.05-0.06c-0.35-0.26-0.7-0.53-1.04-0.79
			C18.32,16.66,18.19,16.56,18.06,16.47z"/>
		<path class="st8" d="M6.76,12.3c0-0.03,0-0.06,0-0.09c0-0.9,0-1.79,0-2.69c0-0.03,0-0.06,0-0.1c-0.48,0-0.96,0-1.44,0
			c0-0.18,0-0.36,0-0.54c0-0.57,0-1.13-0.02-1.7C5.29,6.94,5.16,6.76,4.96,6.65C4.85,6.6,4.72,6.58,4.6,6.54
			c0.38-0.37,0.73-0.79,1.18-1.08c0.03-0.02,0.06-0.05,0.1-0.06c0.13-0.05,0.16-0.14,0.16-0.27c-0.01-0.41,0-0.82,0-1.22
			c0-0.13,0.04-0.19,0.13-0.22C6.26,3.66,6.34,3.7,6.4,3.81c0.24,0.41,0.48,0.83,0.73,1.24c0.02,0.04,0.05,0.06,0.1,0.06
			c0.08,0,0.16,0,0.25,0c0-0.03,0-0.06,0-0.09c0-0.38,0-0.76,0-1.14c0-0.03-0.01-0.06,0.01-0.08C7.5,3.75,7.53,3.7,7.57,3.68
			c0.05-0.03,0.11,0,0.14,0.05c0.03,0.04,0.06,0.09,0.09,0.14c1.17,1.84,2.34,3.69,3.57,5.49c0.03,0.05,0.06,0.07,0.12,0.07
			c0.09-0.01,0.18,0,0.27,0c0,0.26,0,0.51,0,0.77c0,0.21-0.1,0.38-0.25,0.53c-0.14,0.13-0.31,0.22-0.48,0.31
			c-0.18,0.09-0.36,0.17-0.53,0.27c-0.39,0.22-0.69,0.51-0.81,0.96C9.68,12.29,9.65,12.3,9.6,12.3c-0.37,0-0.73,0-1.1,0
			C7.92,12.3,7.34,12.3,6.76,12.3z M6.75,6.55c0-0.13,0-0.26,0-0.39C6.74,5.97,6.58,5.83,6.39,5.83c-0.19,0-0.36,0.15-0.36,0.33
			c-0.01,0.25-0.01,0.51,0,0.76c0,0.19,0.17,0.35,0.36,0.34c0.19,0,0.35-0.15,0.35-0.34C6.75,6.8,6.75,6.68,6.75,6.55z"/>
		<path class="st9" d="M6.76,12.3c0.58,0,1.16,0,1.74,0c0.37,0,0.73,0,1.1,0c0.04,0,0.07-0.01,0.08-0.05
			c0.12-0.45,0.43-0.74,0.81-0.96c0.17-0.1,0.35-0.18,0.53-0.27c0.17-0.08,0.34-0.18,0.48-0.31c0.16-0.14,0.25-0.31,0.25-0.53
			c0-0.26,0-0.51,0-0.77c0.24,0,0.49,0,0.73,0C12.5,9.71,12.5,10,12.49,10.29c-0.01,0.39-0.2,0.7-0.49,0.95
			c-0.21,0.19-0.46,0.31-0.71,0.43c-0.18,0.09-0.35,0.18-0.51,0.29c-0.3,0.19-0.46,0.45-0.43,0.82c0.01,0.26,0,0.52,0,0.78
			c0,0.06,0,0.12,0.01,0.18c0.06,0.39,0.46,0.74,0.89,0.73c0.63-0.01,1.26,0,1.89,0c0.03,0,0.05,0,0.08,0c0-0.04,0-0.07,0-0.1
			c0-1.61,0-3.22,0-4.83c0-0.03,0-0.07-0.01-0.1c0.48,0,0.97,0,1.45,0c0,0.02,0,0.03,0,0.05c0,1.64,0,3.28,0,4.92
			c0,0.02,0,0.04,0.01,0.07c0.13,0,0.25,0,0.38,0c0.56-0.02,1.02-0.47,1.04-1.03c0.01-0.27,0-0.54,0.01-0.81
			c0-0.21,0.01-0.42,0.08-0.62c0.1-0.3,0.27-0.55,0.49-0.78c0.21-0.21,0.42-0.41,0.62-0.63c0.13-0.14,0.22-0.31,0.24-0.5
			c0.02-0.22,0.01-0.44,0.01-0.67c0.24,0,0.49,0,0.73,0c0,0.13-0.01,0.26-0.01,0.39c-0.01,0.24-0.02,0.48-0.1,0.72
			c-0.09,0.27-0.26,0.48-0.46,0.68c-0.18,0.18-0.35,0.36-0.54,0.54c-0.19,0.19-0.31,0.41-0.32,0.68c-0.02,0.3-0.01,0.6-0.02,0.9
			c0,0.25-0.03,0.49-0.13,0.72c-0.25,0.58-0.69,0.94-1.3,1.08c-0.13,0.03-0.26,0.03-0.39,0.04c-0.1,0.01-0.21,0-0.32,0
			c0,0.24,0,0.48,0,0.71c-0.48,0-0.96,0-1.44,0c0-0.24,0-0.47,0-0.72c-0.04,0-0.07,0-0.1,0c-0.63,0-1.26,0-1.88,0
			c-0.75,0-1.38-0.49-1.57-1.22c-0.02-0.07-0.03-0.14-0.04-0.21c-0.22,0-0.44,0-0.65,0c-0.71,0-1.42,0-2.13,0
			c-0.07-0.23-0.09-0.47-0.09-0.71C6.76,12.78,6.76,12.54,6.76,12.3z"/>
		<path class="st8" d="M6.85,13.74c0.71,0,1.42,0,2.13,0c0.21,0,0.43,0,0.65,0c0.01,0.07,0.02,0.14,0.04,0.21
			c0.18,0.72,0.82,1.21,1.57,1.22c0.63,0,1.26,0,1.88,0c0.03,0,0.06,0,0.1,0c0,0.24,0,0.48,0,0.72c-0.71,0-1.42,0-2.13,0
			c0,0,0,0-0.02,0.01c0,0.02,0,0.05,0,0.08c0,1.38,0,2.76,0,4.14c0,0.05-0.01,0.11-0.04,0.15c-0.22,0.44-0.44,0.87-0.66,1.3
			c-0.02,0.04-0.04,0.06-0.08,0.06c-0.68,0-1.36,0-2.05,0c-0.01,0-0.03,0-0.04,0c0-0.4,0.14-0.73,0.41-1.01
			c0.28-0.28,0.62-0.41,1.02-0.42c0-0.03,0-0.06,0-0.08c0-0.67,0-1.34,0-2.01c0-0.04-0.01-0.09-0.03-0.13
			c-0.38-0.78-0.77-1.55-1.15-2.32c-0.02-0.04-0.05-0.07-0.09-0.09c-0.68-0.34-1.15-0.88-1.43-1.59
			C6.89,13.91,6.87,13.82,6.85,13.74z"/>
		<path class="st10" d="M17.53,9.42c0,0.22,0,0.44-0.01,0.67c-0.01,0.19-0.11,0.36-0.24,0.5c-0.2,0.22-0.41,0.42-0.62,0.63
			c-0.22,0.22-0.39,0.48-0.49,0.78c-0.07,0.2-0.07,0.41-0.08,0.62c0,0.27,0,0.54-0.01,0.81c-0.02,0.56-0.48,1.01-1.04,1.03
			c-0.12,0-0.25,0-0.38,0c0-0.03-0.01-0.05-0.01-0.07c0-1.64,0-3.28,0-4.92c0-0.02,0-0.03,0-0.05c0.56,0,1.11,0,1.67,0
			C16.73,9.42,17.13,9.42,17.53,9.42z"/>
		<path class="st11" d="M18.06,16.47c0.13,0.09,0.26,0.18,0.39,0.28c0.35,0.26,0.7,0.53,1.04,0.79c0.02,0.02,0.03,0.04,0.05,0.06
			c-0.01,0.02-0.02,0.05-0.03,0.07c-0.65,1.29-1.3,2.59-1.94,3.88c-0.03,0.06-0.06,0.08-0.13,0.08c-0.66,0-1.32,0-1.98,0
			c-0.03,0-0.06,0-0.09,0c0-0.21,0.04-0.4,0.13-0.58c0.23-0.47,0.6-0.75,1.12-0.84c0.01,0,0.03,0,0.04,0
			c0.16-0.01,0.16-0.01,0.21-0.17c0.39-1.18,0.78-2.35,1.18-3.53C18.04,16.5,18.05,16.49,18.06,16.47z"/>
		<path class="st12" d="M13.21,9.42c0,0.03,0.01,0.07,0.01,0.1c0,1.61,0,3.22,0,4.83c0,0.03,0,0.07,0,0.1c-0.03,0-0.06,0-0.08,0
			c-0.63,0-1.26-0.01-1.89,0c-0.43,0.01-0.83-0.34-0.89-0.73c-0.01-0.06-0.01-0.12-0.01-0.18c0-0.26,0.01-0.52,0-0.78
			c-0.02-0.37,0.14-0.63,0.43-0.82c0.17-0.1,0.34-0.2,0.51-0.29c0.25-0.12,0.5-0.24,0.71-0.43c0.28-0.26,0.47-0.56,0.49-0.95
			C12.5,10,12.5,9.71,12.5,9.42C12.74,9.42,12.98,9.42,13.21,9.42z M12.5,13.02c0-0.12,0-0.24,0-0.36c0-0.21-0.15-0.36-0.36-0.36
			c-0.24,0-0.48,0-0.71,0c-0.21,0-0.36,0.15-0.37,0.36c0,0.24,0,0.48,0,0.71c0,0.2,0.15,0.36,0.36,0.36c0.25,0,0.49,0,0.74,0
			c0.2,0,0.35-0.16,0.35-0.36C12.5,13.26,12.5,13.14,12.5,13.02z"/>
		<path class="st13" d="M4.6,6.54C4.72,6.58,4.85,6.6,4.96,6.65c0.2,0.11,0.33,0.29,0.34,0.52c0.02,0.57,0.01,1.13,0.02,1.7
			c0,0.18,0,0.36,0,0.54c-0.68,0-1.27-0.21-1.8-0.63c-0.34-0.27-0.6-0.61-0.79-1C2.71,7.77,2.7,7.74,2.7,7.72
			C2.71,7.71,2.72,7.7,2.73,7.69c0.37-0.37,0.73-0.73,1.1-1.1c0.01-0.01,0.03-0.03,0.04-0.05C4.11,6.55,4.36,6.54,4.6,6.54z"/>
		<path class="st9" d="M3.86,6.55C3.85,6.57,3.84,6.58,3.83,6.6c-0.36,0.37-0.73,0.73-1.1,1.1C2.72,7.7,2.71,7.71,2.69,7.72
			C2.53,7.35,2.45,6.96,2.45,6.55c0.02,0,0.04-0.01,0.06-0.01c0.44,0,0.88,0,1.32,0C3.84,6.54,3.85,6.55,3.86,6.55z"/>
		<path class="st7" d="M6.75,6.55c0,0.13,0,0.25,0,0.38C6.74,7.12,6.58,7.27,6.39,7.27c-0.19,0-0.36-0.15-0.36-0.34
			c-0.01-0.25-0.01-0.51,0-0.76c0-0.19,0.17-0.34,0.36-0.33c0.19,0,0.35,0.15,0.35,0.33C6.75,6.29,6.75,6.42,6.75,6.55z"/>
		<path class="st14" d="M12.5,13.02c0,0.12,0,0.24,0,0.36c0,0.2-0.15,0.36-0.35,0.36c-0.25,0-0.49,0-0.74,0
			c-0.2,0-0.35-0.16-0.36-0.36c0-0.24,0-0.48,0-0.71c0-0.21,0.16-0.36,0.37-0.36c0.24,0,0.48,0,0.71,0c0.21,0,0.36,0.15,0.36,0.36
			C12.5,12.78,12.5,12.9,12.5,13.02z"/>
	</g>
</g>
</svg>
