<?xml version="1.0" encoding="utf-8"?>
<!-- Generator: Adobe Illustrator 27.1.1, SVG Export Plug-In . SVG Version: 6.00 Build 0)  -->
<svg version="1.1" xmlns="http://www.w3.org/2000/svg" xmlns:xlink="http://www.w3.org/1999/xlink" x="0px" y="0px"
	 viewBox="0 0 28 28" style="enable-background:new 0 0 28 28;" xml:space="preserve">
<style type="text/css">
	.st0{display:none;}
	.st1{display:inline;fill:#333333;}
	.st2{fill:none;stroke:#FFFFFF;}
	.st3{fill:#FFFFFF;}
	.st4{fill:none;stroke:#FFFFFF;stroke-linecap:round;}
	.st5{fill:none;stroke:#FFFFFF;stroke-linecap:round;stroke-miterlimit:10;}
	.st6{fill:#333333;stroke:#FFFFFF;stroke-linecap:round;stroke-miterlimit:10;}
</style>
<g id="backgrounds" class="st0">
	<rect class="st1" width="28" height="28"/>
</g>
<g id="Layer_1">
	<g>
		<path class="st5" d="M11.83,9h4.33v1.52c0,0.6-0.49,1.08-1.08,1.08h-2.18c-0.6,0-1.08-0.49-1.08-1.08L11.83,9L11.83,9z"/>
		<path class="st5" d="M11.18,15.93h5.64c0.6,0,1.08,0.49,1.08,1.08V22H10.1v-4.98C10.1,16.42,10.59,15.93,11.18,15.93z"/>
		<path class="st5" d="M8.91,9h8.96l2.63,2.59v9c0,0.78-0.63,1.41-1.41,1.41H8.91c-0.78,0-1.41-0.63-1.41-1.41V10.41
			C7.5,9.63,8.13,9,8.91,9z"/>
	</g>
</g>
</svg>
