<?xml version="1.0" encoding="utf-8"?>
<!-- Generator: Adobe Illustrator 27.1.1, SVG Export Plug-In . SVG Version: 6.00 Build 0)  -->
<svg version="1.1" xmlns="http://www.w3.org/2000/svg" xmlns:xlink="http://www.w3.org/1999/xlink" x="0px" y="0px"
	 viewBox="0 0 44 44" style="enable-background:new 0 0 44 44;" xml:space="preserve">
<style type="text/css">
	.st0{display:none;}
	.st1{display:inline;fill:#333333;}
	.st2{fill:none;stroke:#FFFFFF;}
	.st3{fill:#FFFFFF;}
	.st4{fill:none;stroke:#FFFFFF;stroke-linecap:round;}
	.st5{fill:none;stroke:#FFFFFF;stroke-linecap:round;stroke-miterlimit:10;}
	.st6{fill:#333333;stroke:#FFFFFF;stroke-linecap:round;stroke-miterlimit:10;}
</style>
<g id="backgrounds" class="st0">
	<rect x="0" class="st1" width="44" height="44"/>
</g>
<g id="Layer_1">
	<g>
		<path class="st5" d="M25,27H13c-1.1,0-2-0.9-2-2V13c0-1.1,0.9-2,2-2h12c1.1,0,2,0.9,2,2v12C27,26.1,26.1,27,25,27z"/>
		<line class="st6" x1="11" y1="14" x2="27" y2="14"/>
		<path class="st5" d="M27,14h1c1.1,0,2,0.9,2,2v12c0,1.1-0.9,2-2,2H16c-1.1,0-2-0.9-2-2v-1"/>
		<path class="st5" d="M30,17h1c1.1,0,2,0.9,2,2v12c0,1.1-0.9,2-2,2H19c-1.1,0-2-0.9-2-2v-1"/>
	</g>
</g>
</svg>
