<?xml version="1.0" encoding="utf-8"?>
<!-- Generator: Adobe Illustrator 27.1.1, SVG Export Plug-In . SVG Version: 6.00 Build 0)  -->
<svg version="1.1" xmlns="http://www.w3.org/2000/svg" xmlns:xlink="http://www.w3.org/1999/xlink" x="0px" y="0px"
	 viewBox="0 0 44 44" style="enable-background:new 0 0 44 44;" xml:space="preserve">
<style type="text/css">
	.st0{display:none;}
	.st1{display:inline;fill:#333333;}
	.st2{fill:none;stroke:#FFFFFF;}
	.st3{fill:#FFFFFF;}
	.st4{fill:none;stroke:#FFFFFF;stroke-linecap:round;}
	.st5{fill:none;stroke:#FFFFFF;stroke-linecap:round;stroke-miterlimit:10;}
	.st6{fill:#333333;stroke:#FFFFFF;stroke-linecap:round;stroke-miterlimit:10;}
</style>
<g id="backgrounds" class="st0">
	<rect x="0" class="st1" width="44" height="44"/>
</g>
<g id="Layer_1">
	<g>
		<path class="st5" d="M16.5,32.5h-5v-5.96c0-0.55,0.45-1,1-1h3c0.55,0,1,0.45,1,1V32.5z"/>
		<path class="st5" d="M24.5,32.5h-5V14c0-0.55,0.45-1,1-1h3c0.55,0,1,0.45,1,1V32.5z"/>
		<path class="st5" d="M32.5,32.5h-5V19.57c0-0.55,0.45-1,1-1h3c0.55,0,1,0.45,1,1V32.5z"/>
		<line class="st6" x1="9.5" y1="32.5" x2="34.5" y2="32.5"/>
	</g>
</g>
</svg>
