<?xml version="1.0" encoding="utf-8"?>
<!-- Generator: Adobe Illustrator 27.1.1, SVG Export Plug-In . SVG Version: 6.00 Build 0)  -->
<svg version="1.1" xmlns="http://www.w3.org/2000/svg" xmlns:xlink="http://www.w3.org/1999/xlink" x="0px" y="0px"
	 viewBox="0 0 44 44" style="enable-background:new 0 0 44 44;" xml:space="preserve">
<style type="text/css">
	.st0{display:none;}
	.st1{display:inline;fill:#333333;}
	.st2{fill:none;stroke:#FFFFFF;}
	.st3{fill:#FFFFFF;}
	.st4{fill:none;stroke:#FFFFFF;stroke-linecap:round;}
	.st5{fill:none;stroke:#FFFFFF;stroke-linecap:round;stroke-miterlimit:10;}
	.st6{fill:#333333;stroke:#FFFFFF;stroke-linecap:round;stroke-miterlimit:10;}
</style>
<g id="backgrounds" class="st0">
	<rect x="0" class="st1" width="44" height="44"/>
</g>
<g id="Layer_1">
	<path class="st2" d="M24.81,12.43c0.79,0.23,1.53,0.56,2.23,0.96l2.25-1.4c0.4-0.25,0.91-0.19,1.24,0.14l1.53,1.53
		c0.33,0.33,0.39,0.84,0.14,1.24l-1.44,2.31c0.39,0.7,0.69,1.46,0.9,2.25l2.58,0.6c0.45,0.11,0.77,0.51,0.77,0.98v2.16
		c0,0.47-0.32,0.87-0.77,0.98l-2.65,0.62c-0.23,0.79-0.56,1.53-0.96,2.23l1.4,2.25c0.25,0.4,0.19,0.91-0.14,1.24l-1.53,1.53
		c-0.33,0.33-0.84,0.39-1.24,0.14l-2.32-1.44c-0.7,0.39-1.46,0.69-2.25,0.9l-0.6,2.58C23.82,34.68,23.42,35,22.95,35h-2.16
		c-0.47,0-0.87-0.32-0.98-0.77l-0.62-2.65c-0.79-0.23-1.53-0.56-2.23-0.96l-2.25,1.4c-0.4,0.25-0.91,0.19-1.24-0.14l-1.53-1.53
		c-0.33-0.33-0.39-0.84-0.14-1.24l1.44-2.32c-0.39-0.7-0.69-1.46-0.9-2.25l-2.58-0.6C9.32,23.82,9,23.42,9,22.95v-2.16
		c0-0.47,0.32-0.87,0.77-0.98l2.65-0.62c0.23-0.79,0.56-1.53,0.96-2.23l-1.4-2.25c-0.25-0.4-0.19-0.91,0.14-1.24l1.53-1.53
		c0.33-0.33,0.84-0.39,1.24-0.14l2.31,1.44c0.7-0.39,1.46-0.69,2.25-0.9l0.6-2.58C20.18,9.32,20.58,9,21.05,9h2.16
		c0.47,0,0.87,0.32,0.98,0.77L24.81,12.43z M22,18c2.21,0,4,1.79,4,4s-1.79,4-4,4s-4-1.79-4-4S19.79,18,22,18z"/>
</g>
</svg>
